<?xml version="1.0" encoding="UTF-8"?>
<svg width="42px" height="32px" viewBox="0 0 42 32" version="1.1" xmlns="http://www.w3.org/2000/svg" xmlns:xlink="http://www.w3.org/1999/xlink">
    <!-- Generator: Sketch 60.1 (88133) - https://sketch.com -->
    <title>ic-safe-secure-payments@1.5x</title>
    <desc>Created with Sketch.</desc>
    <g id="Page-1" stroke="none" stroke-width="1" fill="none" fill-rule="evenodd">
        <g id="Desktop-HD" transform="translate(-100.000000, -276.000000)" fill-rule="nonzero">
            <g id="ic-safe-secure-payments" transform="translate(100.000000, 276.000000)">
                <path d="M38,6 L2,6 L2,4 C2,2.8954305 2.8954305,2 4,2 L36,2 C37.1045695,2 38,2.8954305 38,4 L38,6 Z" id="Path" fill="#AAE0F8"></path>
                <path d="M38,22 C38,23.1045695 37.1045695,24 36,24 L4,24 C2.8954305,24 2,23.1045695 2,22 L2,10 L38,10 L38,22 Z" id="Path" fill="#AAE0F8"></path>
                <path d="M36,0 L4,0 C1.790861,0 0,1.790861 0,4 L0,22 C0,24.209139 1.790861,26 4,26 L36,26 C38.209139,26 40,24.209139 40,22 L40,4 C40,1.790861 38.209139,0 36,0 Z M38,22 C38,23.1045695 37.1045695,24 36,24 L4,24 C2.8954305,24 2,23.1045695 2,22 L2,10 L38,10 L38,22 Z M38,6 L2,6 L2,4 C2,2.8954305 2.8954305,2 4,2 L36,2 C37.1045695,2 38,2.8954305 38,4 L38,6 Z M13,19.11 C13,20.6066917 11.7866917,21.82 10.29,21.82 C8.79330833,21.82 7.58,20.6066917 7.58,19.11 C7.58,17.6133083 8.79330833,16.4 10.29,16.4 C11.7866917,16.4 13,17.6133083 13,19.11 Z M7.07,19.11 C7.08015475,18.0907588 7.57377673,17.1369178 8.4,16.54 C8.02317686,16.3559521 7.60936769,16.2601946 7.19,16.26 C6.13332735,16.1973256 5.12896595,16.7254562 4.58170234,17.6315399 C4.03443873,18.5376236 4.03443873,19.6723764 4.58170234,20.5784601 C5.12896595,21.4845438 6.13332735,22.0126744 7.19,21.95 C7.60808047,21.9482732 8.02084459,21.8561688 8.4,21.68 C7.59011833,21.0735747 7.11235826,20.1217581 7.11,19.11 L7.07,19.11 Z" id="Shape" fill="#19335D"></path>
                <path d="M33.94,30.7 C33.1168164,30.2686345 32.3452178,29.7452894 31.64,29.14 C28.7939081,26.693939 27.1365717,23.1425038 27.09,19.39 C27.067974,18.4445472 27.1450614,17.4993883 27.32,16.57 L27.39,16.57 C28.6339209,16.5684322 29.8636993,16.3061249 31,15.8 C32.1287002,15.3181695 33.1489383,14.6142052 34,13.73 C34.8190615,14.6063631 35.8050464,15.3101523 36.9,15.8 C38.0299576,16.3039606 39.2527586,16.5662327 40.49,16.57 L40.57,16.57 C40.7395696,17.5001027 40.8166122,18.4447122 40.8,19.39 C40.7625396,23.1445787 39.1035346,26.6995892 36.25,29.14 C35.5432134,29.7479678 34.7679848,30.2714988 33.94,30.7 L33.94,30.7 Z" id="Path" fill="#C9E5D2"></path>
                <path d="M33.94,15.11 C34.7106697,15.7680711 35.5730486,16.3104266 36.5,16.72 C37.5177488,17.1676419 38.60225,17.4446796 39.71,17.54 C39.7813703,18.1506093 39.8114386,18.7653402 39.8,19.38 C39.7847637,20.4943876 39.6165246,21.6014009 39.3,22.67 C38.4570023,25.5659827 36.5396758,28.0306058 33.94,29.56 C33.3568753,29.2151773 32.8048008,28.8203604 32.29,28.38 C29.6634071,26.1216662 28.1336852,22.8436907 28.09,19.38 C28.0788291,18.7686704 28.1088973,18.1572833 28.18,17.55 C29.2875375,17.4534287 30.3718377,17.1764423 31.39,16.73 C32.313843,16.3203294 33.1729074,15.7779398 33.94,15.12 M33.94,12.74 C33.6678124,12.7410388 33.4078088,12.8529847 33.22,13.05 C32.4690253,13.8328827 31.5721941,14.461344 30.58,14.9 C29.5759114,15.3472264 28.4891834,15.57888 27.39,15.58 C27.0993336,15.5782903 26.8089485,15.5616015 26.52,15.53 C26.2037464,16.7982748 26.0591223,18.1032544 26.09,19.41 C26.1069397,20.7104909 26.3020899,22.0025202 26.67,23.25 C27.4338184,25.841553 28.9389415,28.1531162 31,29.9 C31.7670025,30.5585507 32.6056007,31.1287975 33.5,31.6 C33.6393223,31.6713839 33.7934577,31.7090614 33.95,31.71 C34.1065423,31.7090614 34.2606777,31.6713839 34.4,31.6 C35.2958268,31.1311772 36.1346858,30.5607531 36.9,29.9 C39.9608842,27.2669096 41.7451042,23.4472222 41.8,19.41 C41.8276615,18.0995046 41.6796793,16.7912075 41.36,15.52 C41.0743728,15.5513124 40.7873315,15.5680009 40.5,15.57 C39.4008166,15.56888 38.3140886,15.3372264 37.31,14.89 C36.3113696,14.4397068 35.4109732,13.7975374 34.66,13 C34.4721912,12.8029847 34.2121876,12.6910388 33.94,12.69 L33.94,12.74 Z" id="Shape" fill="#19335D"></path>
                <path d="M33.39,24.7400213 C33.1339123,24.7416723 32.8869425,24.645032 32.7,24.47 L30.9,22.76 C30.6409824,22.5134867 30.5331536,22.1475149 30.6171316,21.7999425 C30.7011095,21.45237 30.964136,21.1760016 31.3071316,21.0749424 C31.6501271,20.9738833 32.0209825,21.0634867 32.28,21.31 L33.37,22.31 L36.42,19.19 C36.8065993,18.7951164 37.4401164,18.7884007 37.835,19.175 C38.2298836,19.5615993 38.2365993,20.1951164 37.85,20.59 L34.11,24.41 C33.9256464,24.6144053 33.6651892,24.7337815 33.39,24.7400213 Z" id="Path" fill="#19335D"></path>
            </g>
        </g>
    </g>
</svg>