<?xml version="1.0" encoding="UTF-8"?>
<svg width="42px" height="32px" viewBox="0 0 42 32" version="1.1" xmlns="http://www.w3.org/2000/svg" xmlns:xlink="http://www.w3.org/1999/xlink">
    <!-- Generator: Sketch 60.1 (88133) - https://sketch.com -->
    <title>ic-60m-transactions@1.5x</title>
    <desc>Created with Sketch.</desc>
    <g id="Page-1" stroke="none" stroke-width="1" fill="none" fill-rule="evenodd">
        <g id="Desktop-HD" transform="translate(-388.000000, -275.000000)" fill-rule="nonzero">
            <g id="ic-60m-transactions" transform="translate(388.000000, 275.000000)">
                <rect id="Rectangle" fill="#C9E5D2" x="0.998662312" y="2.8146192" width="32" height="16" rx="2.19"></rect>
                <path d="M30.8086623,4.8146192 C30.9135964,4.8146192 30.9986623,4.8996851 30.9986623,5.0046192 L30.9986623,16.6246192 C30.9936397,16.727401 30.9114442,16.8095966 30.8086623,16.8146192 L3.18866231,16.8146192 C3.08588047,16.8095966 3.00368489,16.727401 2.99866231,16.6246192 L2.99866231,5.0046192 C2.99866231,4.8996851 3.08372821,4.8146192 3.18866231,4.8146192 L30.8086623,4.8146192 M30.8086623,2.8146192 L3.18866231,2.8146192 C1.97915871,2.8146192 0.998662312,3.7951156 0.998662312,5.0046192 L0.998662312,16.6246192 C0.998662312,17.8341228 1.97915871,18.8146192 3.18866231,18.8146192 L30.8086623,18.8146192 C31.3894864,18.8146192 31.9465215,18.5838877 32.3572262,18.173183 C32.7679308,17.7624784 32.9986623,17.2054433 32.9986623,16.6246192 L32.9986623,5.0046192 C32.9986623,4.42379509 32.7679308,3.86676002 32.3572262,3.45605535 C31.9465215,3.04535068 31.3894864,2.8146192 30.8086623,2.8146192 Z" id="Shape" fill="#19335D"></path>
                <path d="M7.10866231,2.8146192 L4.99866231,2.8146192 C5.19499499,3.22703793 5.29745323,3.67785419 5.29866231,4.1346192 C5.3120688,4.93889626 5.00192666,5.71486624 4.43785789,6.28833616 C3.87378911,6.86180607 3.10305109,7.18473093 2.29866231,7.1846192 C1.85017644,7.18642284 1.40663945,7.0908918 0.998662312,6.9046192 L0.998662312,9.0046192 C1.40966599,9.11618694 1.83285981,9.1766432 2.25866231,9.1846192 C5.02008606,9.1846192 7.25866231,6.94604295 7.25866231,4.1846192 C7.25235817,3.73827926 7.18849776,3.29461751 7.06866231,2.8646192 L7.10866231,2.8146192 Z" id="Path" fill="#19335D"></path>
                <path d="M31.7386623,12.4446192 C28.9772386,12.4446192 26.7386623,14.6831954 26.7386623,17.4446192 C26.7457351,17.8908983 26.8095815,18.3344625 26.9286623,18.7646192 L28.9986623,18.7646192 C28.7988753,18.3529971 28.6929931,17.9021439 28.6886623,17.4446192 C28.6886623,15.7877649 30.0318081,14.4446192 31.6886623,14.4446192 C32.1242179,14.4434666 32.5545883,14.5391045 32.9486623,14.7246192 L32.9486623,12.6246192 C32.53869,12.5081264 32.1148537,12.4475784 31.6886623,12.4446192 L31.7386623,12.4446192 Z" id="Path" fill="#19335D"></path>
                <path d="M2.25866231,12.4446192 C1.8324709,12.4475784 1.40863463,12.5081264 0.998662312,12.6246192 L0.998662312,14.7246192 C1.39273627,14.5391045 1.82310672,14.4434666 2.25866231,14.4446192 C3.91551656,14.4446192 5.25866231,15.7877649 5.25866231,17.4446192 C5.27751594,17.9151313 5.18858502,18.3837289 4.99866231,18.8146192 L7.10866231,18.8146192 C7.22774317,18.3844625 7.29158952,17.9408983 7.29866231,17.4946192 C7.29866231,14.7331954 5.06008606,12.4946192 2.29866231,12.4946192 L2.25866231,12.4446192 Z" id="Path" fill="#19335D"></path>
                <path d="M28.9986623,2.8146192 L26.8886623,2.8146192 C26.7688269,3.24461751 26.7049665,3.68827926 26.6986623,4.1346192 C26.6853144,5.4693436 27.2062001,6.753996 28.1453327,7.70251985 C29.0844652,8.6510437 30.3638712,9.18468594 31.6986623,9.1846192 C32.1378746,9.17997845 32.5747131,9.11949311 32.9986623,9.0046192 L32.9986623,6.9046192 C32.6029601,7.08532419 32.1736559,7.18072512 31.7386623,7.1846192 C30.0818081,7.1846192 28.7386623,5.84147345 28.7386623,4.1846192 C28.7198087,3.71410709 28.8087396,3.24550952 28.9986623,2.8146192 L28.9986623,2.8146192 Z" id="Shape" fill="#19335D"></path>
                <path d="M16.9986623,8.8146192 C18.1032318,8.8146192 18.9986623,9.7100497 18.9986623,10.8146192 C18.9986623,11.9191887 18.1032318,12.8146192 16.9986623,12.8146192 C15.8940928,12.8146192 14.9986623,11.9191887 14.9986623,10.8146192 C14.9986623,9.7100497 15.8940928,8.8146192 16.9986623,8.8146192 M16.9986623,6.8146192 C14.7895233,6.8146192 12.9986623,8.6054802 12.9986623,10.8146192 C12.9986623,13.0237582 14.7895233,14.8146192 16.9986623,14.8146192 C19.2078013,14.8146192 20.9986623,13.0237582 20.9986623,10.8146192 C20.9986623,8.6054802 19.2078013,6.8146192 16.9986623,6.8146192 L16.9986623,6.8146192 Z" id="Shape" fill="#19335D"></path>
                <path d="M16.9986623,8.8146192 C18.1032318,8.8146192 18.9986623,9.7100497 18.9986623,10.8146192 C18.9986623,11.9191887 18.1032318,12.8146192 16.9986623,12.8146192 C15.8940928,12.8146192 14.9986623,11.9191887 14.9986623,10.8146192 C14.9986623,9.7100497 15.8940928,8.8146192 16.9986623,8.8146192" id="Path" fill="#C9E5D2"></path>
                <rect id="Rectangle" fill="#AAE0F8" x="8.97866231" y="12.4546192" width="32" height="16" rx="2.19"></rect>
                <path d="M38.7886623,14.4546192 C38.8935964,14.4546192 38.9786623,14.5396851 38.9786623,14.6446192 L38.9786623,26.2646192 C38.9736397,26.367401 38.8914442,26.4495966 38.7886623,26.4546192 L11.1686623,26.4546192 C11.0637282,26.4546192 10.9786623,26.3695533 10.9786623,26.2646192 L10.9786623,14.6446192 C10.9757273,14.5933845 10.9948007,14.5433331 11.0310885,14.5070453 C11.0673762,14.4707576 11.1174276,14.4516842 11.1686623,14.4546192 L38.7886623,14.4546192 M38.7886623,12.4546192 L11.1686623,12.4546192 C9.96697645,12.465594 8.99866231,13.4428832 8.99866231,14.6446192 L8.99866231,26.2646192 C8.99866231,27.4741228 9.97915871,28.4547107 11.1886623,28.4547107 L38.7886623,28.4547107 C39.3729439,28.4599553 39.9351308,28.2315817 40.3501713,27.8202972 C40.7652118,27.4090128 40.9986623,26.8489252 40.9986623,26.2646192 L40.9986623,14.6446192 C40.9986623,13.4351156 40.0181659,12.4546192 38.8086623,12.4546192 L38.7886623,12.4546192 Z" id="Shape" fill="#19335D"></path>
                <path d="M15.0786623,12.4546192 L12.9986623,12.4546192 C13.1984493,12.8662413 13.3043315,13.3170945 13.3086623,13.7746192 C13.3220688,14.5788963 13.0119267,15.3548662 12.4478579,15.9283362 C11.8837891,16.5018061 11.1130511,16.8247309 10.3086623,16.8246192 C9.85680756,16.8278763 9.40970332,16.7323121 8.99866231,16.5446192 L8.99866231,18.6446192 C9.40966599,18.7561869 9.83285981,18.8166432 10.2586623,18.8246192 C11.5934535,18.8246859 12.8728594,18.2910437 13.811992,17.3425199 C14.7511245,16.393996 15.2720102,15.1093436 15.2586623,13.7746192 C15.2539414,13.3274403 15.186621,12.8831257 15.0586623,12.4546192 L15.0786623,12.4546192 Z" id="Path" fill="#19335D"></path>
                <path d="M39.7186623,22.0846192 C38.3838712,22.0845525 37.1044652,22.6181947 36.1653327,23.5667185 C35.2262001,24.5152424 34.7053144,25.7998948 34.7186623,27.1346192 C34.7249665,27.5809591 34.7888269,28.0246209 34.9086623,28.4546192 L36.9986623,28.4546192 C36.7959465,28.0440429 36.6899049,27.5925112 36.6886623,27.1346192 C36.6752558,26.3303421 36.985398,25.5543722 37.5494667,24.9809022 C38.1135355,24.4074323 38.8842735,24.0845075 39.6886623,24.0846192 C40.1235205,24.0896909 40.552584,24.1850384 40.9486623,24.3646192 L40.9486623,22.2646192 C40.5385393,22.148837 40.1147994,22.0883027 39.6886623,22.0846192 L39.7186623,22.0846192 Z" id="Path" fill="#19335D"></path>
                <path d="M10.2386623,22.0846192 C9.8191756,22.0893646 9.40218445,22.1498956 8.99866231,22.2646192 L8.99866231,24.3646192 C9.39436456,24.1839142 9.82366875,24.0885133 10.2586623,24.0846192 C11.0630511,24.0845075 11.8337891,24.4074323 12.3978579,24.9809022 C12.9619267,25.5543722 13.2720688,26.3303421 13.2586623,27.1346192 C13.2699964,27.5883748 13.181226,28.0390556 12.9986623,28.4546192 L15.1086623,28.4546192 C15.236621,28.0261127 15.3039414,27.5817981 15.3086623,27.1346192 C15.3220102,25.7998948 14.8011245,24.5152424 13.861992,23.5667185 C12.9228594,22.6181947 11.6434535,22.0845525 10.3086623,22.0846192 L10.2386623,22.0846192 Z" id="Path" fill="#19335D"></path>
                <path d="M36.9986623,12.4546192 L34.8686623,12.4546192 C34.7488269,12.8846175 34.6849665,13.3282793 34.6786623,13.7746192 C34.6653144,15.1093436 35.1862001,16.393996 36.1253327,17.3425199 C37.0644652,18.2910437 38.3438712,18.8246859 39.6786623,18.8246192 C40.1245207,18.8209153 40.568091,18.7604285 40.9986623,18.6446192 L40.9986623,16.5446192 C40.602584,16.7242 40.1735205,16.8195475 39.7386623,16.8246192 C38.9342735,16.8247309 38.1635355,16.5018061 37.5994667,15.9283362 C37.035398,15.3548662 36.7252558,14.5788963 36.7386623,13.7746192 C36.7242791,13.3206097 36.8131811,12.8692615 36.9986623,12.4546192 L36.9986623,12.4546192 Z" id="Shape" fill="#19335D"></path>
                <path d="M24.9986623,18.4546192 C26.1032318,18.4546192 26.9986623,19.3500497 26.9986623,20.4546192 C26.9986623,21.5591887 26.1032318,22.4546192 24.9986623,22.4546192 C23.8940928,22.4546192 22.9986623,21.5591887 22.9986623,20.4546192 C22.9986623,19.3500497 23.8940928,18.4546192 24.9986623,18.4546192 M24.9986623,16.4546192 C22.7895233,16.4546192 20.9986623,18.2454802 20.9986623,20.4546192 C20.9986623,22.6637582 22.7895233,24.4546192 24.9986623,24.4546192 C27.2078013,24.4546192 28.9986623,22.6637582 28.9986623,20.4546192 C28.9986623,18.2454802 27.2078013,16.4546192 24.9986623,16.4546192 Z" id="Shape" fill="#19335D"></path>
                <path d="M24.9986623,18.4546192 C26.1032318,18.4546192 26.9986623,19.3500497 26.9986623,20.4546192 C26.9986623,21.5591887 26.1032318,22.4546192 24.9986623,22.4546192 C23.8940928,22.4546192 22.9986623,21.5591887 22.9986623,20.4546192 C22.9986623,19.3500497 23.8940928,18.4546192 24.9986623,18.4546192" id="Path" fill="#AAE0F8"></path>
                <path d="M37.5586623,9.7546192 L41.7386623,5.5646192 C41.8913486,5.4142533 41.9773246,5.20891573 41.9773246,4.9946192 C41.9773246,4.78032266 41.8913486,4.5749851 41.7386623,4.4246192 L37.5586623,0.244619198 C37.3280796,0.00807979084 36.9769597,-0.0647404701 36.671327,0.0605909194 C36.3656943,0.185922309 36.1667891,0.484292409 36.1686492,0.814619198 L36.1686492,9.1946192 C36.1708531,9.52312449 36.3712419,9.81777368 36.6759549,9.94053575 C36.9806679,10.0632978 37.3293517,9.98985774 37.5586623,9.7546192 L37.5586623,9.7546192 Z" id="Path" fill="#C9E5D2"></path>
                <path d="M5.80867543,30.4646192 L5.80867543,22.0846192 C5.81053548,21.7542924 5.61163034,21.4559223 5.30599765,21.3305909 C5.00036496,21.2052595 4.64924506,21.2780798 4.41866231,21.5146192 L0.238662312,25.6946192 C0.0859760319,25.8449851 -3.10862447e-15,26.0503227 -3.10862447e-15,26.2646192 C-3.10862447e-15,26.4789157 0.0859760319,26.6842533 0.238662312,26.8346192 L4.41866231,31.0046192 C4.64539594,31.2375178 4.98939014,31.3123253 5.29236826,31.1946215 C5.59534637,31.0769178 5.7986209,30.7895024 5.80867543,30.4646192 Z" id="Path" fill="#AAE0F8"></path>
            </g>
        </g>
    </g>
</svg>