<?xml version="1.0" encoding="UTF-8"?>
<svg width="26px" height="30px" viewBox="0 0 26 30" version="1.1" xmlns="http://www.w3.org/2000/svg" xmlns:xlink="http://www.w3.org/1999/xlink">
    <!-- Generator: Sketch 60.1 (88133) - https://sketch.com -->
    <title>ic-10-years-of-trust@1.5x</title>
    <desc>Created with Sketch.</desc>
    <g id="Page-1" stroke="none" stroke-width="1" fill="none" fill-rule="evenodd">
        <g id="Desktop-HD" transform="translate(-667.000000, -276.000000)" fill-rule="nonzero">
            <g id="ic-10-years-of-trust" transform="translate(667.000000, 276.000000)">
                <g id="Asset-1">
                    <path d="M13.24,28.57 C13.1562371,28.5706698 13.0737112,28.5497876 13,28.51 C11.6701055,27.8201636 10.4250556,26.9778253 9.29,26 C6.22824294,23.3985362 3.99621935,19.9566307 2.87,16.1 C2.31457768,14.2466777 2.02172756,12.3246383 2,10.39 C1.96332128,8.71128529 2.11764591,7.03384369 2.46,5.39 L3,5.39 C4.86110567,5.40231139 6.70410638,5.02417261 8.41,4.28 C10.0740751,3.54434393 11.5787993,2.49137659 12.84,1.18 C12.9406608,1.06420041 13.0865655,0.997706773 13.24,0.997706773 C13.3934345,0.997706773 13.5393392,1.06420041 13.64,1.18 C14.9012633,2.49581492 16.4101827,3.54933975 18.08,4.28 C19.7705042,5.03274144 21.5994885,5.42442337 23.45,5.43 L24,5.43 C24.3414165,7.07398386 24.4957313,8.75131855 24.46,10.43 C24.4405337,12.3681004 24.1476456,14.2937555 23.59,16.15 C22.4583628,19.9851232 20.2345159,23.4077625 17.19,26 C16.0571582,26.9835226 14.8118178,27.8294142 13.48,28.52 C13.4056765,28.5571595 13.3229793,28.5743881 13.24,28.57 Z" id="Path" fill="#FFEAC1"></path>
                    <path d="M13.24,2.19 C14.5215829,3.45151695 16.0229092,4.46821646 17.67,5.19 C19.4090582,5.96682383 21.2857813,6.38840655 23.19,6.43 C23.4140543,7.75102842 23.5111637,9.09046828 23.48,10.43 C23.4582897,12.2731596 23.1789173,14.1042268 22.65,15.87 C21.5780828,19.5370056 19.4536464,22.8088463 16.54,25.28 C15.5229348,26.1535387 14.4168565,26.9177383 13.24,27.56 C12.0631435,26.9177383 10.9570652,26.1535387 9.94,25.28 C7.026366,22.802822 4.89934669,19.5288806 3.82,15.86 C3.29470528,14.0765922 3.01875419,12.229066 3,10.37 C2.97192372,9.05045284 3.06902491,7.73121596 3.29,6.43 C5.19421868,6.38840655 7.07094176,5.96682383 8.81,5.19 C10.4570908,4.46821646 11.9584171,3.45151695 13.24,2.19 M13.24,-1.67345463e-05 C12.8167931,0.000389975562 12.4121492,0.173808812 12.12,0.48 C10.956222,1.70950783 9.55445805,2.68938165 8,3.36 C6.42897028,4.0699455 4.72398777,4.43481175 3,4.43 C2.55,4.43 2.1,4.43 1.65,4.36 C1.15855537,6.32104863 0.929887284,8.3387082 0.97,10.36 C0.994706237,12.3924346 1.30095246,14.4116405 1.88,16.36 C3.06754823,20.4132677 5.41789887,24.0291917 8.64,26.76 C9.83496315,27.7859867 11.1434873,28.6717569 12.54,29.4 C12.9792974,29.6260295 13.5007026,29.6260295 13.94,29.4 C15.3365127,28.6717569 16.6450369,27.7859867 17.84,26.76 C21.0419131,24.0335961 23.3804709,20.4336765 24.57,16.4 C25.1482944,14.4514724 25.4545247,12.4323718 25.48,10.4 C25.519758,8.37872473 25.2910952,6.3611119 24.8,4.4 C24.35,4.4 23.9,4.47 23.45,4.47 C21.7260122,4.47481175 20.0210297,4.1099455 18.45,3.4 C16.9042896,2.71141376 15.5132499,1.71829978 14.36,0.48 C14.0692331,0.171823746 13.663691,-0.00198002027 13.24,-1.67345463e-05 Z" id="Shape" fill="#19335D"></path>
                    <path d="M12.38,18.1600213 C12.1239123,18.1616723 11.8769425,18.065032 11.69,17.89 L8.88,15.22 C8.47959356,14.8389235 8.46392352,14.2054064 8.845,13.805 C9.22607648,13.4045936 9.85959356,13.3889235 10.26,13.77 L12.36,15.77 L17.5,10.52 C17.7500859,10.2645551 18.1174531,10.1619335 18.4637178,10.2507918 C18.8099825,10.3396501 19.082539,10.6064886 19.1787178,10.9507918 C19.2748966,11.295095 19.1800859,11.6645551 18.93,11.92 L13.1,17.86 C12.9105017,18.0533362 12.6507138,18.1615811 12.38,18.1600213 Z" id="Path" fill="#19335D"></path>
                </g>
            </g>
        </g>
    </g>
</svg>